<svg width="330" height="305" viewBox="0 0 330 305" fill="none" xmlns="http://www.w3.org/2000/svg">
<path d="M105.577 10.3438C105.497 9.59943 105.162 9.01989 104.571 8.60511C103.986 8.19034 103.224 7.98295 102.287 7.98295C101.628 7.98295 101.062 8.08239 100.591 8.28125C100.119 8.48011 99.7585 8.75 99.5085 9.09091C99.2585 9.43182 99.1306 9.82102 99.125 10.2585C99.125 10.6222 99.2074 10.9375 99.3721 11.2045C99.5426 11.4716 99.7727 11.6989 100.062 11.8864C100.352 12.0682 100.673 12.2216 101.026 12.3466C101.378 12.4716 101.733 12.5767 102.091 12.6619L103.727 13.071C104.386 13.2244 105.02 13.4318 105.628 13.6932C106.241 13.9545 106.79 14.2841 107.273 14.6818C107.761 15.0795 108.148 15.5597 108.432 16.1222C108.716 16.6847 108.858 17.3437 108.858 18.0994C108.858 19.1222 108.597 20.0227 108.074 20.8011C107.551 21.5739 106.795 22.179 105.807 22.6165C104.824 23.0483 103.633 23.2642 102.236 23.2642C100.878 23.2642 99.6988 23.054 98.6988 22.6335C97.7045 22.2131 96.9261 21.5994 96.3636 20.7926C95.8068 19.9858 95.5056 19.0028 95.4602 17.8438H98.571C98.6164 18.4517 98.8039 18.9574 99.1335 19.3608C99.463 19.7642 99.892 20.0653 100.42 20.2642C100.955 20.4631 101.551 20.5625 102.21 20.5625C102.898 20.5625 103.5 20.4602 104.017 20.2557C104.54 20.0455 104.949 19.7557 105.244 19.3864C105.54 19.0114 105.69 18.5739 105.696 18.0739C105.69 17.6193 105.557 17.2443 105.295 16.9489C105.034 16.6477 104.668 16.3977 104.196 16.1989C103.73 15.9943 103.185 15.8125 102.56 15.6534L100.574 15.142C99.1363 14.7727 98 14.2131 97.1647 13.4631C96.3352 12.7074 95.9204 11.7045 95.9204 10.4545C95.9204 9.42614 96.1988 8.52557 96.7556 7.75284C97.3181 6.98011 98.0824 6.38068 99.0483 5.95454C100.014 5.52273 101.108 5.30682 102.33 5.30682C103.568 5.30682 104.653 5.52273 105.585 5.95454C106.523 6.38068 107.258 6.97443 107.793 7.73579C108.327 8.49148 108.602 9.3608 108.619 10.3438H105.577ZM114.117 23H110.742L116.887 5.54545H120.79L126.944 23H123.569L118.907 9.125H118.77L114.117 23ZM114.228 16.1562H123.432V18.696H114.228V16.1562ZM129.723 23V5.54545H136.268C137.609 5.54545 138.734 5.77841 139.643 6.24432C140.558 6.71023 141.248 7.36364 141.714 8.20454C142.186 9.03977 142.422 10.0142 142.422 11.1278C142.422 12.2472 142.183 13.2187 141.706 14.0426C141.234 14.8608 140.538 15.4943 139.618 15.9432C138.697 16.3864 137.567 16.608 136.226 16.608H131.564V13.983H135.799C136.584 13.983 137.226 13.875 137.726 13.6591C138.226 13.4375 138.595 13.1165 138.834 12.696C139.078 12.2699 139.2 11.7472 139.2 11.1278C139.2 10.5085 139.078 9.98011 138.834 9.54261C138.589 9.09943 138.217 8.7642 137.717 8.53693C137.217 8.30398 136.572 8.1875 135.782 8.1875H132.885V23H129.723ZM138.74 15.0909L143.061 23H139.532L135.288 15.0909H138.74ZM159.174 5.54545V23H156.012V8.62216H155.91L151.828 11.2301V8.33239L156.166 5.54545H159.174ZM170.291 23.2386C169.024 23.2386 167.899 23.0256 166.916 22.5994C165.938 22.1733 165.171 21.5909 164.614 20.8523C164.063 20.108 163.791 19.2642 163.796 18.321C163.791 17.5881 163.95 16.9148 164.274 16.3011C164.597 15.6875 165.035 15.1761 165.586 14.767C166.143 14.3523 166.762 14.0881 167.444 13.9744V13.8551C166.546 13.6562 165.819 13.1989 165.262 12.483C164.711 11.7614 164.438 10.929 164.444 9.98579C164.438 9.08807 164.688 8.28693 165.194 7.58239C165.7 6.87784 166.393 6.32386 167.274 5.92045C168.154 5.51136 169.16 5.30682 170.291 5.30682C171.41 5.30682 172.407 5.51136 173.282 5.92045C174.163 6.32386 174.856 6.87784 175.362 7.58239C175.873 8.28693 176.129 9.08807 176.129 9.98579C176.129 10.929 175.847 11.7614 175.285 12.483C174.728 13.1989 174.009 13.6562 173.129 13.8551V13.9744C173.81 14.0881 174.424 14.3523 174.97 14.767C175.521 15.1761 175.958 15.6875 176.282 16.3011C176.612 16.9148 176.776 17.5881 176.776 18.321C176.776 19.2642 176.498 20.108 175.941 20.8523C175.384 21.5909 174.617 22.1733 173.64 22.5994C172.668 23.0256 171.552 23.2386 170.291 23.2386ZM170.291 20.8011C170.944 20.8011 171.512 20.6903 171.995 20.4688C172.478 20.2415 172.853 19.9233 173.12 19.5142C173.387 19.1051 173.524 18.6335 173.529 18.0994C173.524 17.5426 173.379 17.0511 173.095 16.625C172.816 16.1932 172.433 15.8551 171.944 15.6108C171.461 15.3665 170.91 15.2443 170.291 15.2443C169.666 15.2443 169.109 15.3665 168.62 15.6108C168.132 15.8551 167.745 16.1932 167.461 16.625C167.183 17.0511 167.046 17.5426 167.052 18.0994C167.046 18.6335 167.177 19.1051 167.444 19.5142C167.711 19.9176 168.086 20.233 168.569 20.4602C169.058 20.6875 169.632 20.8011 170.291 20.8011ZM170.291 12.8494C170.825 12.8494 171.296 12.7415 171.705 12.5256C172.12 12.3097 172.447 12.0085 172.685 11.6222C172.924 11.2358 173.046 10.7898 173.052 10.2841C173.046 9.78409 172.927 9.34659 172.694 8.97159C172.461 8.59091 172.137 8.2983 171.722 8.09375C171.308 7.88352 170.83 7.77841 170.291 7.77841C169.739 7.77841 169.254 7.88352 168.833 8.09375C168.418 8.2983 168.095 8.59091 167.862 8.97159C167.634 9.34659 167.524 9.78409 167.529 10.2841C167.524 10.7898 167.637 11.2358 167.87 11.6222C168.109 12.0028 168.435 12.304 168.85 12.5256C169.271 12.7415 169.751 12.8494 170.291 12.8494ZM180.058 23V20.7159L186.118 14.7756C186.697 14.1903 187.18 13.6705 187.567 13.2159C187.953 12.7614 188.243 12.321 188.436 11.8949C188.629 11.4687 188.726 11.0142 188.726 10.5312C188.726 9.98011 188.601 9.50852 188.351 9.11648C188.101 8.71875 187.757 8.41193 187.32 8.19602C186.882 7.98011 186.385 7.87216 185.828 7.87216C185.254 7.87216 184.751 7.99148 184.32 8.23011C183.888 8.46307 183.553 8.79545 183.314 9.22727C183.081 9.65909 182.964 10.1733 182.964 10.7699H179.956C179.956 9.66193 180.209 8.69886 180.714 7.88068C181.22 7.0625 181.916 6.42898 182.803 5.98011C183.695 5.53125 184.717 5.30682 185.871 5.30682C187.041 5.30682 188.07 5.52557 188.956 5.96307C189.842 6.40057 190.53 7 191.018 7.76136C191.513 8.52273 191.76 9.39204 191.76 10.3693C191.76 11.0227 191.635 11.6648 191.385 12.2955C191.135 12.9261 190.695 13.625 190.064 14.392C189.439 15.1591 188.561 16.0881 187.43 17.179L184.422 20.2386V20.358H192.024V23H180.058ZM197.379 23.1875C196.862 23.1875 196.419 23.0057 196.05 22.642C195.68 22.2784 195.498 21.8352 195.504 21.3125C195.498 20.8011 195.68 20.3636 196.05 20C196.419 19.6364 196.862 19.4545 197.379 19.4545C197.879 19.4545 198.314 19.6364 198.683 20C199.058 20.3636 199.248 20.8011 199.254 21.3125C199.248 21.6591 199.158 21.9744 198.981 22.2585C198.811 22.5426 198.584 22.7699 198.3 22.9403C198.021 23.1051 197.714 23.1875 197.379 23.1875ZM208.657 23.3324C207.254 23.3324 206.049 22.9773 205.044 22.267C204.044 21.5511 203.274 20.5199 202.734 19.1733C202.2 17.821 201.933 16.1932 201.933 14.2898C201.939 12.3864 202.209 10.767 202.743 9.43182C203.282 8.09091 204.052 7.06818 205.052 6.36364C206.058 5.65909 207.26 5.30682 208.657 5.30682C210.055 5.30682 211.257 5.65909 212.263 6.36364C213.268 7.06818 214.038 8.09091 214.572 9.43182C215.112 10.7727 215.382 12.392 215.382 14.2898C215.382 16.1989 215.112 17.8295 214.572 19.1818C214.038 20.5284 213.268 21.5568 212.263 22.267C211.263 22.9773 210.061 23.3324 208.657 23.3324ZM208.657 20.6648C209.748 20.6648 210.609 20.1278 211.24 19.054C211.876 17.9744 212.194 16.3864 212.194 14.2898C212.194 12.9034 212.049 11.7386 211.76 10.7955C211.47 9.85227 211.061 9.14205 210.532 8.66477C210.004 8.18182 209.379 7.94034 208.657 7.94034C207.572 7.94034 206.714 8.48011 206.084 9.55966C205.453 10.6335 205.135 12.2102 205.129 14.2898C205.123 15.6818 205.263 16.8523 205.547 17.8011C205.836 18.75 206.246 19.4659 206.774 19.9489C207.302 20.4261 207.93 20.6648 208.657 20.6648ZM225.145 23.3324C223.742 23.3324 222.537 22.9773 221.532 22.267C220.532 21.5511 219.762 20.5199 219.222 19.1733C218.688 17.821 218.421 16.1932 218.421 14.2898C218.427 12.3864 218.696 10.767 219.23 9.43182C219.77 8.09091 220.54 7.06818 221.54 6.36364C222.546 5.65909 223.748 5.30682 225.145 5.30682C226.543 5.30682 227.745 5.65909 228.75 6.36364C229.756 7.06818 230.526 8.09091 231.06 9.43182C231.6 10.7727 231.87 12.392 231.87 14.2898C231.87 16.1989 231.6 17.8295 231.06 19.1818C230.526 20.5284 229.756 21.5568 228.75 22.267C227.75 22.9773 226.549 23.3324 225.145 23.3324ZM225.145 20.6648C226.236 20.6648 227.097 20.1278 227.728 19.054C228.364 17.9744 228.682 16.3864 228.682 14.2898C228.682 12.9034 228.537 11.7386 228.248 10.7955C227.958 9.85227 227.549 9.14205 227.02 8.66477C226.492 8.18182 225.867 7.94034 225.145 7.94034C224.06 7.94034 223.202 8.48011 222.571 9.55966C221.941 10.6335 221.623 12.2102 221.617 14.2898C221.611 15.6818 221.75 16.8523 222.034 17.8011C222.324 18.75 222.733 19.4659 223.262 19.9489C223.79 20.4261 224.418 20.6648 225.145 20.6648Z" fill="black"/>
<path d="M44.3029 38.3636V50H42.8938V38.3636H44.3029ZM48.6073 44.75V50H47.2664V41.2727H48.5619V42.6364H48.6755C48.88 42.1932 49.1906 41.8371 49.6073 41.5682C50.024 41.2955 50.5619 41.1591 51.221 41.1591C51.8119 41.1591 52.3289 41.2803 52.7721 41.5227C53.2153 41.7614 53.56 42.125 53.8062 42.6136C54.0524 43.0985 54.1755 43.7121 54.1755 44.4545V50H52.8346V44.5455C52.8346 43.8598 52.6566 43.3258 52.3005 42.9432C51.9444 42.5568 51.4558 42.3636 50.8346 42.3636C50.4066 42.3636 50.024 42.4564 49.6869 42.642C49.3535 42.8277 49.0903 43.0985 48.8971 43.4545C48.7039 43.8106 48.6073 44.2424 48.6073 44.75ZM60.4912 50.1818C59.6731 50.1818 58.9685 49.9886 58.3776 49.6023C57.7867 49.2159 57.3321 48.6837 57.014 48.0057C56.6958 47.3277 56.5367 46.553 56.5367 45.6818C56.5367 44.7955 56.6996 44.0133 57.0253 43.3352C57.3549 42.6534 57.8132 42.1212 58.4003 41.7386C58.9912 41.3523 59.6806 41.1591 60.4685 41.1591C61.0821 41.1591 61.6352 41.2727 62.1276 41.5C62.62 41.7273 63.0234 42.0455 63.3378 42.4545C63.6522 42.8636 63.8473 43.3409 63.9231 43.8864H62.5821C62.4799 43.4886 62.2526 43.1364 61.9003 42.8295C61.5518 42.5189 61.0821 42.3636 60.4912 42.3636C59.9685 42.3636 59.5102 42.5 59.1162 42.7727C58.7261 43.0417 58.4212 43.4223 58.2015 43.9148C57.9856 44.4034 57.8776 44.9773 57.8776 45.6364C57.8776 46.3106 57.9837 46.8977 58.1958 47.3977C58.4117 47.8977 58.7147 48.286 59.1049 48.5625C59.4988 48.839 59.9609 48.9773 60.4912 48.9773C60.8397 48.9773 61.156 48.9167 61.4401 48.7955C61.7242 48.6742 61.9647 48.5 62.1617 48.2727C62.3587 48.0455 62.4988 47.7727 62.5821 47.4545H63.9231C63.8473 47.9697 63.6598 48.4337 63.3606 48.8466C63.0651 49.2557 62.6731 49.5814 62.1844 49.8239C61.6996 50.0625 61.1352 50.1818 60.4912 50.1818ZM66.2033 50V41.2727H67.4987V42.5909H67.5896C67.7487 42.1591 68.0366 41.8087 68.4533 41.5398C68.8699 41.2708 69.3396 41.1364 69.8624 41.1364C69.9609 41.1364 70.084 41.1383 70.2317 41.142C70.3794 41.1458 70.4912 41.1515 70.5669 41.1591V42.5227C70.5215 42.5114 70.4173 42.4943 70.2544 42.4716C70.0953 42.4451 69.9268 42.4318 69.7487 42.4318C69.3245 42.4318 68.9457 42.5208 68.6124 42.6989C68.2828 42.8731 68.0215 43.1155 67.8283 43.4261C67.6389 43.733 67.5442 44.0833 67.5442 44.4773V50H66.2033ZM75.8699 50.1818C75.029 50.1818 74.3036 49.9962 73.6937 49.625C73.0877 49.25 72.6199 48.7273 72.2903 48.0568C71.9646 47.3826 71.8017 46.5985 71.8017 45.7045C71.8017 44.8106 71.9646 44.0227 72.2903 43.3409C72.6199 42.6553 73.0782 42.1212 73.6653 41.7386C74.2562 41.3523 74.9456 41.1591 75.7335 41.1591C76.1881 41.1591 76.6369 41.2348 77.0801 41.3864C77.5233 41.5379 77.9267 41.7841 78.2903 42.125C78.654 42.4621 78.9437 42.9091 79.1596 43.4659C79.3756 44.0227 79.4835 44.7083 79.4835 45.5227V46.0909H72.7562V44.9318H78.1199C78.1199 44.4394 78.0214 44 77.8244 43.6136C77.6312 43.2273 77.3547 42.9223 76.9949 42.6989C76.6388 42.4754 76.2184 42.3636 75.7335 42.3636C75.1994 42.3636 74.7373 42.4962 74.3471 42.7614C73.9608 43.0227 73.6634 43.3636 73.4551 43.7841C73.2468 44.2045 73.1426 44.6553 73.1426 45.1364V45.9091C73.1426 46.5682 73.2562 47.1269 73.4835 47.5852C73.7146 48.0398 74.0346 48.3864 74.4437 48.625C74.8528 48.8598 75.3282 48.9773 75.8699 48.9773C76.2221 48.9773 76.5403 48.928 76.8244 48.8295C77.1123 48.7273 77.3604 48.5758 77.5687 48.375C77.7771 48.1705 77.9381 47.9167 78.0517 47.6136L79.3471 47.9773C79.2108 48.4167 78.9816 48.803 78.6596 49.1364C78.3377 49.4659 77.9399 49.7235 77.4665 49.9091C76.993 50.0909 76.4608 50.1818 75.8699 50.1818ZM84.4115 50.2045C83.8584 50.2045 83.3565 50.1004 82.9058 49.892C82.455 49.6799 82.0971 49.375 81.8319 48.9773C81.5668 48.5758 81.4342 48.0909 81.4342 47.5227C81.4342 47.0227 81.5327 46.6174 81.7296 46.3068C81.9266 45.9924 82.1899 45.7462 82.5194 45.5682C82.849 45.3902 83.2126 45.2576 83.6103 45.1705C84.0118 45.0795 84.4152 45.0076 84.8206 44.9545C85.3509 44.8864 85.7808 44.8352 86.1103 44.8011C86.4437 44.7633 86.6861 44.7008 86.8376 44.6136C86.9929 44.5265 87.0706 44.375 87.0706 44.1591V44.1136C87.0706 43.553 86.9171 43.1174 86.6103 42.8068C86.3073 42.4962 85.8471 42.3409 85.2296 42.3409C84.5895 42.3409 84.0876 42.4811 83.724 42.7614C83.3603 43.0417 83.1046 43.3409 82.9569 43.6591L81.6842 43.2045C81.9115 42.6742 82.2145 42.2614 82.5933 41.9659C82.9759 41.6667 83.3925 41.4583 83.8433 41.3409C84.2978 41.2197 84.7448 41.1591 85.1842 41.1591C85.4645 41.1591 85.7865 41.1932 86.1501 41.2614C86.5175 41.3258 86.8717 41.4602 87.2126 41.6648C87.5573 41.8693 87.8433 42.178 88.0706 42.5909C88.2978 43.0038 88.4115 43.5568 88.4115 44.25V50H87.0706V48.8182H87.0024C86.9115 49.0076 86.7599 49.2102 86.5478 49.4261C86.3357 49.642 86.0535 49.8258 85.7012 49.9773C85.349 50.1288 84.919 50.2045 84.4115 50.2045ZM84.616 49C85.1463 49 85.5933 48.8958 85.9569 48.6875C86.3243 48.4792 86.6009 48.2102 86.7865 47.8807C86.9759 47.5511 87.0706 47.2045 87.0706 46.8409V45.6136C87.0137 45.6818 86.8887 45.7443 86.6956 45.8011C86.5062 45.8542 86.2865 45.9015 86.0365 45.9432C85.7902 45.9811 85.5497 46.0152 85.3149 46.0455C85.0838 46.072 84.8963 46.0947 84.7524 46.1136C84.4039 46.1591 84.0781 46.233 83.7751 46.3352C83.4759 46.4337 83.2334 46.5833 83.0478 46.7841C82.866 46.9811 82.7751 47.25 82.7751 47.5909C82.7751 48.0568 82.9474 48.4091 83.2921 48.6477C83.6406 48.8826 84.0819 49 84.616 49ZM97.3607 43.2273L96.1562 43.5682C96.0804 43.3674 95.9687 43.1723 95.8209 42.983C95.677 42.7898 95.48 42.6307 95.23 42.5057C94.98 42.3807 94.66 42.3182 94.2698 42.3182C93.7357 42.3182 93.2906 42.4413 92.9346 42.6875C92.5823 42.9299 92.4062 43.2386 92.4062 43.6136C92.4062 43.947 92.5274 44.2102 92.7698 44.4034C93.0122 44.5966 93.391 44.7576 93.9062 44.8864L95.2016 45.2045C95.9819 45.3939 96.5634 45.6837 96.9459 46.0739C97.3285 46.4602 97.5198 46.9583 97.5198 47.5682C97.5198 48.0682 97.3759 48.5152 97.088 48.9091C96.8039 49.303 96.4062 49.6136 95.8948 49.8409C95.3834 50.0682 94.7888 50.1818 94.1107 50.1818C93.2206 50.1818 92.4838 49.9886 91.9005 49.6023C91.3172 49.2159 90.9478 48.6515 90.7925 47.9091L92.0653 47.5909C92.1865 48.0606 92.4156 48.4129 92.7528 48.6477C93.0937 48.8826 93.5388 49 94.088 49C94.713 49 95.2092 48.8674 95.5766 48.6023C95.9478 48.3333 96.1334 48.0114 96.1334 47.6364C96.1334 47.3333 96.0274 47.0795 95.8153 46.875C95.6031 46.6667 95.2774 46.5114 94.838 46.4091L93.3834 46.0682C92.5842 45.8788 91.9971 45.5852 91.6221 45.1875C91.2509 44.786 91.0653 44.2841 91.0653 43.6818C91.0653 43.1894 91.2035 42.7538 91.48 42.375C91.7603 41.9962 92.141 41.6989 92.6221 41.483C93.1069 41.267 93.6562 41.1591 94.2698 41.1591C95.1334 41.1591 95.8115 41.3485 96.3039 41.7273C96.8001 42.1061 97.1524 42.6061 97.3607 43.2273ZM103.517 50.1818C102.676 50.1818 101.951 49.9962 101.341 49.625C100.735 49.25 100.267 48.7273 99.9378 48.0568C99.6121 47.3826 99.4492 46.5985 99.4492 45.7045C99.4492 44.8106 99.6121 44.0227 99.9378 43.3409C100.267 42.6553 100.726 42.1212 101.313 41.7386C101.904 41.3523 102.593 41.1591 103.381 41.1591C103.836 41.1591 104.284 41.2348 104.728 41.3864C105.171 41.5379 105.574 41.7841 105.938 42.125C106.301 42.4621 106.591 42.9091 106.807 43.4659C107.023 44.0227 107.131 44.7083 107.131 45.5227V46.0909H100.404V44.9318H105.767C105.767 44.4394 105.669 44 105.472 43.6136C105.279 43.2273 105.002 42.9223 104.642 42.6989C104.286 42.4754 103.866 42.3636 103.381 42.3636C102.847 42.3636 102.385 42.4962 101.995 42.7614C101.608 43.0227 101.311 43.3636 101.103 43.7841C100.894 44.2045 100.79 44.6553 100.79 45.1364V45.9091C100.79 46.5682 100.904 47.1269 101.131 47.5852C101.362 48.0398 101.682 48.3864 102.091 48.625C102.5 48.8598 102.976 48.9773 103.517 48.9773C103.87 48.9773 104.188 48.928 104.472 48.8295C104.76 48.7273 105.008 48.5758 105.216 48.375C105.425 48.1705 105.586 47.9167 105.699 47.6136L106.995 47.9773C106.858 48.4167 106.629 48.803 106.307 49.1364C105.985 49.4659 105.587 49.7235 105.114 49.9091C104.64 50.0909 104.108 50.1818 103.517 50.1818ZM117.856 50.1818C117.068 50.1818 116.377 49.9943 115.782 49.6193C115.191 49.2443 114.729 48.7197 114.396 48.0455C114.066 47.3712 113.902 46.5833 113.902 45.6818C113.902 44.7727 114.066 43.9792 114.396 43.3011C114.729 42.6231 115.191 42.0966 115.782 41.7216C116.377 41.3466 117.068 41.1591 117.856 41.1591C118.644 41.1591 119.334 41.3466 119.924 41.7216C120.519 42.0966 120.981 42.6231 121.311 43.3011C121.644 43.9792 121.811 44.7727 121.811 45.6818C121.811 46.5833 121.644 47.3712 121.311 48.0455C120.981 48.7197 120.519 49.2443 119.924 49.6193C119.334 49.9943 118.644 50.1818 117.856 50.1818ZM117.856 48.9773C118.455 48.9773 118.947 48.8239 119.334 48.517C119.72 48.2102 120.006 47.8068 120.191 47.3068C120.377 46.8068 120.47 46.2652 120.47 45.6818C120.47 45.0985 120.377 44.5549 120.191 44.0511C120.006 43.5473 119.72 43.1402 119.334 42.8295C118.947 42.5189 118.455 42.3636 117.856 42.3636C117.258 42.3636 116.765 42.5189 116.379 42.8295C115.993 43.1402 115.707 43.5473 115.521 44.0511C115.335 44.5549 115.243 45.0985 115.243 45.6818C115.243 46.2652 115.335 46.8068 115.521 47.3068C115.707 47.8068 115.993 48.2102 116.379 48.517C116.765 48.8239 117.258 48.9773 117.856 48.9773ZM128.064 41.2727V42.4091H123.359V41.2727H128.064ZM124.769 50V40.0682C124.769 39.5682 124.886 39.1515 125.121 38.8182C125.356 38.4848 125.661 38.2348 126.036 38.0682C126.411 37.9015 126.806 37.8182 127.223 37.8182C127.553 37.8182 127.822 37.8447 128.03 37.8977C128.238 37.9508 128.394 38 128.496 38.0455L128.109 39.2045C128.041 39.1818 127.947 39.1534 127.825 39.1193C127.708 39.0852 127.553 39.0682 127.359 39.0682C126.916 39.0682 126.596 39.1799 126.399 39.4034C126.206 39.6269 126.109 39.9545 126.109 40.3864V50H124.769ZM174.875 41.2727V42.4091H170.17V41.2727H174.875ZM171.579 50V40.0682C171.579 39.5682 171.697 39.1515 171.931 38.8182C172.166 38.4848 172.471 38.2348 172.846 38.0682C173.221 37.9015 173.617 37.8182 174.034 37.8182C174.363 37.8182 174.632 37.8447 174.841 37.8977C175.049 37.9508 175.204 38 175.306 38.0455L174.92 39.2045C174.852 39.1818 174.757 39.1534 174.636 39.1193C174.519 39.0852 174.363 39.0682 174.17 39.0682C173.727 39.0682 173.407 39.1799 173.21 39.4034C173.017 39.6269 172.92 39.9545 172.92 40.3864V50H171.579ZM177.074 50V41.2727H178.369V42.5909H178.46C178.619 42.1591 178.907 41.8087 179.324 41.5398C179.741 41.2708 180.21 41.1364 180.733 41.1364C180.831 41.1364 180.955 41.1383 181.102 41.142C181.25 41.1458 181.362 41.1515 181.438 41.1591V42.5227C181.392 42.5114 181.288 42.4943 181.125 42.4716C180.966 42.4451 180.797 42.4318 180.619 42.4318C180.195 42.4318 179.816 42.5208 179.483 42.6989C179.153 42.8731 178.892 43.1155 178.699 43.4261C178.51 43.733 178.415 44.0833 178.415 44.4773V50H177.074ZM186.627 50.1818C185.839 50.1818 185.148 49.9943 184.553 49.6193C183.962 49.2443 183.5 48.7197 183.167 48.0455C182.837 47.3712 182.672 46.5833 182.672 45.6818C182.672 44.7727 182.837 43.9792 183.167 43.3011C183.5 42.6231 183.962 42.0966 184.553 41.7216C185.148 41.3466 185.839 41.1591 186.627 41.1591C187.415 41.1591 188.104 41.3466 188.695 41.7216C189.29 42.0966 189.752 42.6231 190.081 43.3011C190.415 43.9792 190.581 44.7727 190.581 45.6818C190.581 46.5833 190.415 47.3712 190.081 48.0455C189.752 48.7197 189.29 49.2443 188.695 49.6193C188.104 49.9943 187.415 50.1818 186.627 50.1818ZM186.627 48.9773C187.225 48.9773 187.718 48.8239 188.104 48.517C188.49 48.2102 188.776 47.8068 188.962 47.3068C189.148 46.8068 189.24 46.2652 189.24 45.6818C189.24 45.0985 189.148 44.5549 188.962 44.0511C188.776 43.5473 188.49 43.1402 188.104 42.8295C187.718 42.5189 187.225 42.3636 186.627 42.3636C186.028 42.3636 185.536 42.5189 185.15 42.8295C184.763 43.1402 184.477 43.5473 184.292 44.0511C184.106 44.5549 184.013 45.0985 184.013 45.6818C184.013 46.2652 184.106 46.8068 184.292 47.3068C184.477 47.8068 184.763 48.2102 185.15 48.517C185.536 48.8239 186.028 48.9773 186.627 48.9773ZM192.948 50V41.2727H194.244V42.6364H194.357C194.539 42.1705 194.833 41.8087 195.238 41.5511C195.643 41.2898 196.13 41.1591 196.698 41.1591C197.274 41.1591 197.753 41.2898 198.136 41.5511C198.522 41.8087 198.823 42.1705 199.039 42.6364H199.13C199.354 42.1856 199.689 41.8277 200.136 41.5625C200.583 41.2936 201.119 41.1591 201.744 41.1591C202.524 41.1591 203.162 41.4034 203.659 41.892C204.155 42.3769 204.403 43.1326 204.403 44.1591V50H203.062V44.1591C203.062 43.5152 202.886 43.0549 202.534 42.7784C202.181 42.5019 201.766 42.3636 201.289 42.3636C200.676 42.3636 200.2 42.5492 199.863 42.9205C199.526 43.2879 199.357 43.7538 199.357 44.3182V50H197.994V44.0227C197.994 43.5265 197.833 43.1269 197.511 42.8239C197.189 42.517 196.774 42.3636 196.266 42.3636C195.918 42.3636 195.592 42.4564 195.289 42.642C194.99 42.8277 194.748 43.0852 194.562 43.4148C194.38 43.7405 194.289 44.1174 194.289 44.5455V50H192.948ZM213.335 38.3636V50H211.995V38.3636H213.335ZM218.68 50.2045C218.127 50.2045 217.625 50.1004 217.174 49.892C216.723 49.6799 216.365 49.375 216.1 48.9773C215.835 48.5758 215.702 48.0909 215.702 47.5227C215.702 47.0227 215.801 46.6174 215.998 46.3068C216.195 45.9924 216.458 45.7462 216.788 45.5682C217.117 45.3902 217.481 45.2576 217.878 45.1705C218.28 45.0795 218.683 45.0076 219.089 44.9545C219.619 44.8864 220.049 44.8352 220.378 44.8011C220.712 44.7633 220.954 44.7008 221.106 44.6136C221.261 44.5265 221.339 44.375 221.339 44.1591V44.1136C221.339 43.553 221.185 43.1174 220.878 42.8068C220.575 42.4962 220.115 42.3409 219.498 42.3409C218.858 42.3409 218.356 42.4811 217.992 42.7614C217.628 43.0417 217.373 43.3409 217.225 43.6591L215.952 43.2045C216.18 42.6742 216.483 42.2614 216.861 41.9659C217.244 41.6667 217.661 41.4583 218.111 41.3409C218.566 41.2197 219.013 41.1591 219.452 41.1591C219.733 41.1591 220.055 41.1932 220.418 41.2614C220.786 41.3258 221.14 41.4602 221.481 41.6648C221.825 41.8693 222.111 42.178 222.339 42.5909C222.566 43.0038 222.68 43.5568 222.68 44.25V50H221.339V48.8182H221.27C221.18 49.0076 221.028 49.2102 220.816 49.4261C220.604 49.642 220.322 49.8258 219.969 49.9773C219.617 50.1288 219.187 50.2045 218.68 50.2045ZM218.884 49C219.414 49 219.861 48.8958 220.225 48.6875C220.592 48.4792 220.869 48.2102 221.055 47.8807C221.244 47.5511 221.339 47.2045 221.339 46.8409V45.6136C221.282 45.6818 221.157 45.7443 220.964 45.8011C220.774 45.8542 220.555 45.9015 220.305 45.9432C220.058 45.9811 219.818 46.0152 219.583 46.0455C219.352 46.072 219.164 46.0947 219.02 46.1136C218.672 46.1591 218.346 46.233 218.043 46.3352C217.744 46.4337 217.502 46.5833 217.316 46.7841C217.134 46.9811 217.043 47.25 217.043 47.5909C217.043 48.0568 217.216 48.4091 217.56 48.6477C217.909 48.8826 218.35 49 218.884 49ZM231.629 43.2273L230.424 43.5682C230.349 43.3674 230.237 43.1723 230.089 42.983C229.945 42.7898 229.748 42.6307 229.498 42.5057C229.248 42.3807 228.928 42.3182 228.538 42.3182C228.004 42.3182 227.559 42.4413 227.203 42.6875C226.85 42.9299 226.674 43.2386 226.674 43.6136C226.674 43.947 226.796 44.2102 227.038 44.4034C227.28 44.5966 227.659 44.7576 228.174 44.8864L229.47 45.2045C230.25 45.3939 230.831 45.6837 231.214 46.0739C231.597 46.4602 231.788 46.9583 231.788 47.5682C231.788 48.0682 231.644 48.5152 231.356 48.9091C231.072 49.303 230.674 49.6136 230.163 49.8409C229.652 50.0682 229.057 50.1818 228.379 50.1818C227.489 50.1818 226.752 49.9886 226.169 49.6023C225.585 49.2159 225.216 48.6515 225.061 47.9091L226.333 47.5909C226.455 48.0606 226.684 48.4129 227.021 48.6477C227.362 48.8826 227.807 49 228.356 49C228.981 49 229.477 48.8674 229.845 48.6023C230.216 48.3333 230.402 48.0114 230.402 47.6364C230.402 47.3333 230.296 47.0795 230.083 46.875C229.871 46.6667 229.546 46.5114 229.106 46.4091L227.652 46.0682C226.852 45.8788 226.265 45.5852 225.89 45.1875C225.519 44.786 225.333 44.2841 225.333 43.6818C225.333 43.1894 225.472 42.7538 225.748 42.375C226.028 41.9962 226.409 41.6989 226.89 41.483C227.375 41.267 227.924 41.1591 228.538 41.1591C229.402 41.1591 230.08 41.3485 230.572 41.7273C231.068 42.1061 231.421 42.6061 231.629 43.2273ZM237.922 41.2727V42.4091H233.399V41.2727H237.922ZM234.717 39.1818H236.058V47.5C236.058 47.8788 236.113 48.1629 236.223 48.3523C236.337 48.5379 236.481 48.6629 236.655 48.7273C236.833 48.7879 237.02 48.8182 237.217 48.8182C237.365 48.8182 237.486 48.8106 237.581 48.7955C237.676 48.7765 237.751 48.7614 237.808 48.75L238.081 49.9545C237.99 49.9886 237.863 50.0227 237.7 50.0568C237.537 50.0947 237.331 50.1136 237.081 50.1136C236.702 50.1136 236.331 50.0322 235.967 49.8693C235.607 49.7064 235.308 49.4583 235.07 49.125C234.835 48.7917 234.717 48.3712 234.717 47.8636V39.1818ZM247.374 50L244.193 38.3636H245.624L248.056 47.8409H248.17L250.647 38.3636H252.238L254.715 47.8409H254.829L257.261 38.3636H258.693L255.511 50H254.056L251.488 40.7273H251.397L248.829 50H247.374ZM263.433 50.1818C262.592 50.1818 261.867 49.9962 261.257 49.625C260.651 49.25 260.183 48.7273 259.853 48.0568C259.528 47.3826 259.365 46.5985 259.365 45.7045C259.365 44.8106 259.528 44.0227 259.853 43.3409C260.183 42.6553 260.641 42.1212 261.228 41.7386C261.819 41.3523 262.509 41.1591 263.297 41.1591C263.751 41.1591 264.2 41.2348 264.643 41.3864C265.086 41.5379 265.49 41.7841 265.853 42.125C266.217 42.4621 266.507 42.9091 266.723 43.4659C266.939 44.0227 267.047 44.7083 267.047 45.5227V46.0909H260.319V44.9318H265.683C265.683 44.4394 265.585 44 265.388 43.6136C265.194 43.2273 264.918 42.9223 264.558 42.6989C264.202 42.4754 263.781 42.3636 263.297 42.3636C262.763 42.3636 262.3 42.4962 261.91 42.7614C261.524 43.0227 261.227 43.3636 261.018 43.7841C260.81 44.2045 260.706 44.6553 260.706 45.1364V45.9091C260.706 46.5682 260.819 47.1269 261.047 47.5852C261.278 48.0398 261.598 48.3864 262.007 48.625C262.416 48.8598 262.891 48.9773 263.433 48.9773C263.785 48.9773 264.103 48.928 264.388 48.8295C264.675 48.7273 264.924 48.5758 265.132 48.375C265.34 48.1705 265.501 47.9167 265.615 47.6136L266.91 47.9773C266.774 48.4167 266.545 48.803 266.223 49.1364C265.901 49.4659 265.503 49.7235 265.03 49.9091C264.556 50.0909 264.024 50.1818 263.433 50.1818ZM273.066 50.1818C272.225 50.1818 271.499 49.9962 270.889 49.625C270.283 49.25 269.816 48.7273 269.486 48.0568C269.16 47.3826 268.997 46.5985 268.997 45.7045C268.997 44.8106 269.16 44.0227 269.486 43.3409C269.816 42.6553 270.274 42.1212 270.861 41.7386C271.452 41.3523 272.141 41.1591 272.929 41.1591C273.384 41.1591 273.833 41.2348 274.276 41.3864C274.719 41.5379 275.122 41.7841 275.486 42.125C275.85 42.4621 276.139 42.9091 276.355 43.4659C276.571 44.0227 276.679 44.7083 276.679 45.5227V46.0909H269.952V44.9318H275.316C275.316 44.4394 275.217 44 275.02 43.6136C274.827 43.2273 274.55 42.9223 274.191 42.6989C273.834 42.4754 273.414 42.3636 272.929 42.3636C272.395 42.3636 271.933 42.4962 271.543 42.7614C271.156 43.0227 270.859 43.3636 270.651 43.7841C270.442 44.2045 270.338 44.6553 270.338 45.1364V45.9091C270.338 46.5682 270.452 47.1269 270.679 47.5852C270.91 48.0398 271.23 48.3864 271.639 48.625C272.048 48.8598 272.524 48.9773 273.066 48.9773C273.418 48.9773 273.736 48.928 274.02 48.8295C274.308 48.7273 274.556 48.5758 274.764 48.375C274.973 48.1705 275.134 47.9167 275.247 47.6136L276.543 47.9773C276.406 48.4167 276.177 48.803 275.855 49.1364C275.533 49.4659 275.136 49.7235 274.662 49.9091C274.189 50.0909 273.656 50.1818 273.066 50.1818ZM280.289 46.8182L280.266 45.1591H280.539L284.357 41.2727H286.016L281.948 45.3864H281.834L280.289 46.8182ZM279.039 50V38.3636H280.38V50H279.039ZM284.584 50L281.175 45.6818L282.13 44.75L286.289 50H284.584Z" fill="#666666"/>
<path d="M139.151 38.3636V50H137.742V39.8409H137.674L134.833 41.7273V40.2955L137.742 38.3636H139.151ZM142.818 50V48.9773L146.659 44.7727C147.11 44.2803 147.481 43.8523 147.773 43.4886C148.064 43.1212 148.28 42.7765 148.42 42.4545C148.564 42.1288 148.636 41.7879 148.636 41.4318C148.636 41.0227 148.538 40.6686 148.341 40.3693C148.148 40.0701 147.882 39.839 147.545 39.6761C147.208 39.5133 146.829 39.4318 146.409 39.4318C145.962 39.4318 145.572 39.5246 145.239 39.7102C144.909 39.892 144.653 40.1477 144.471 40.4773C144.293 40.8068 144.204 41.1932 144.204 41.6364H142.864C142.864 40.9545 143.021 40.3561 143.335 39.8409C143.649 39.3258 144.078 38.9242 144.619 38.6364C145.165 38.3485 145.776 38.2045 146.454 38.2045C147.136 38.2045 147.74 38.3485 148.267 38.6364C148.793 38.9242 149.206 39.3125 149.506 39.8011C149.805 40.2898 149.954 40.8333 149.954 41.4318C149.954 41.8598 149.877 42.2784 149.721 42.6875C149.57 43.0928 149.305 43.5455 148.926 44.0455C148.551 44.5417 148.03 45.1477 147.364 45.8636L144.75 48.6591V48.75H150.159V50H142.818ZM158.757 47.8182V47.2045C158.757 46.7803 158.844 46.392 159.019 46.0398C159.197 45.6837 159.454 45.3996 159.791 45.1875C160.132 44.9716 160.545 44.8636 161.03 44.8636C161.523 44.8636 161.935 44.9716 162.269 45.1875C162.602 45.3996 162.854 45.6837 163.024 46.0398C163.195 46.392 163.28 46.7803 163.28 47.2045V47.8182C163.28 48.2424 163.193 48.6326 163.019 48.9886C162.848 49.3409 162.594 49.625 162.257 49.8409C161.924 50.053 161.515 50.1591 161.03 50.1591C160.538 50.1591 160.123 50.053 159.786 49.8409C159.449 49.625 159.193 49.3409 159.019 48.9886C158.844 48.6326 158.757 48.2424 158.757 47.8182ZM159.916 47.2045V47.8182C159.916 48.1705 160 48.4867 160.166 48.767C160.333 49.0436 160.621 49.1818 161.03 49.1818C161.428 49.1818 161.708 49.0436 161.871 48.767C162.038 48.4867 162.121 48.1705 162.121 47.8182V47.2045C162.121 46.8523 162.041 46.5379 161.882 46.2614C161.723 45.9811 161.439 45.8409 161.03 45.8409C160.632 45.8409 160.346 45.9811 160.172 46.2614C160.002 46.5379 159.916 46.8523 159.916 47.2045ZM152.962 41.1591V40.5455C152.962 40.1212 153.049 39.733 153.223 39.3807C153.401 39.0246 153.659 38.7405 153.996 38.5284C154.337 38.3125 154.75 38.2045 155.235 38.2045C155.727 38.2045 156.14 38.3125 156.473 38.5284C156.807 38.7405 157.059 39.0246 157.229 39.3807C157.399 39.733 157.485 40.1212 157.485 40.5455V41.1591C157.485 41.5833 157.398 41.9735 157.223 42.3295C157.053 42.6818 156.799 42.9659 156.462 43.1818C156.129 43.3939 155.719 43.5 155.235 43.5C154.742 43.5 154.327 43.3939 153.99 43.1818C153.653 42.9659 153.398 42.6818 153.223 42.3295C153.049 41.9735 152.962 41.5833 152.962 41.1591ZM154.121 40.5455V41.1591C154.121 41.5114 154.204 41.8277 154.371 42.108C154.538 42.3845 154.826 42.5227 155.235 42.5227C155.632 42.5227 155.913 42.3845 156.076 42.108C156.242 41.8277 156.326 41.5114 156.326 41.1591V40.5455C156.326 40.1932 156.246 39.8788 156.087 39.6023C155.928 39.322 155.644 39.1818 155.235 39.1818C154.837 39.1818 154.551 39.322 154.377 39.6023C154.206 39.8788 154.121 40.1932 154.121 40.5455ZM153.394 50L161.394 38.3636H162.689L154.689 50H153.394Z" fill="#ABD02B"/>
<path d="M33.5085 279.302C33.5085 279.635 33.4447 279.947 33.3171 280.239C33.1941 280.531 33.0232 280.786 32.8044 281.005C32.5857 281.223 32.3305 281.397 32.0388 281.524C31.7472 281.647 31.435 281.709 31.1023 281.709H30.6853C30.3526 281.709 30.0382 281.647 29.7419 281.524C29.4503 281.397 29.1951 281.223 28.9763 281.005C28.7576 280.786 28.5844 280.531 28.4568 280.239C28.3337 279.947 28.2722 279.635 28.2722 279.302V274.039C28.2722 273.706 28.3337 273.394 28.4568 273.102C28.5844 272.811 28.7576 272.555 28.9763 272.337C29.1951 272.118 29.4503 271.947 29.7419 271.824C30.0382 271.696 30.3526 271.633 30.6853 271.633H31.1023C31.435 271.633 31.7472 271.696 32.0388 271.824C32.3305 271.947 32.5857 272.118 32.8044 272.337C33.0232 272.555 33.1941 272.811 33.3171 273.102C33.4447 273.394 33.5085 273.706 33.5085 274.039V279.302ZM32.6267 274.039C32.6267 273.82 32.5857 273.617 32.5037 273.43C32.4216 273.239 32.31 273.073 32.1687 272.931C32.0274 272.79 31.8611 272.678 31.6697 272.596C31.4828 272.514 31.28 272.473 31.0613 272.473H30.7263C30.5076 272.473 30.3025 272.514 30.1111 272.596C29.9242 272.678 29.7579 272.79 29.6121 272.931C29.4708 273.073 29.3591 273.239 29.2771 273.43C29.1951 273.617 29.1541 273.82 29.1541 274.039V279.302C29.1541 279.521 29.1951 279.726 29.2771 279.918C29.3591 280.105 29.4708 280.271 29.6121 280.417C29.7579 280.558 29.9242 280.67 30.1111 280.752C30.3025 280.834 30.5076 280.875 30.7263 280.875H31.0613C31.28 280.875 31.4828 280.834 31.6697 280.752C31.8611 280.67 32.0274 280.558 32.1687 280.417C32.31 280.271 32.4216 280.105 32.5037 279.918C32.5857 279.726 32.6267 279.521 32.6267 279.302V274.039Z" fill="#CCCDD2"/>
<line x1="42.4958" y1="275.775" x2="327.496" y2="273.531" stroke="#CCCCCC"/>
<path d="M44.2078 300L45.1598 297.564H49.5138L50.4658 300H52.1038L48.4498 290.62H46.2798L42.6258 300H44.2078ZM46.6718 293.728L47.2878 291.992H47.3998L48.0018 293.728L48.9818 296.206H45.6918L46.6718 293.728ZM54.5888 302.422V298.922H54.6308C54.9388 299.566 55.7088 300.14 56.9548 300.14C58.8448 300.14 59.8948 298.726 59.8948 296.528C59.8948 294.316 58.8168 292.902 56.8568 292.902C55.6528 292.902 54.8548 293.378 54.5328 294.19H54.4628V293.042H53.0908V302.422H54.5888ZM54.5888 297.144V295.898C54.5888 294.736 55.2608 294.19 56.4928 294.19C57.8368 294.19 58.3828 294.806 58.3828 296.528C58.3828 298.236 57.8228 298.852 56.4928 298.852C55.2608 298.852 54.5888 298.306 54.5888 297.144ZM62.8821 300V295.464C62.8821 294.54 63.2181 294.19 64.1281 294.19C65.0101 294.19 65.2761 294.526 65.2761 295.45V295.73H66.7881V295.268C66.7881 293.966 66.2281 292.902 64.7721 292.902C63.7501 292.902 63.1061 293.462 62.8261 294.106H62.7561V293H61.3701V300H62.8821ZM69.3668 292.16V290.62H67.8548L67.8688 292.16H69.3668ZM69.3808 300V293H67.8688V300H69.3808ZM72.5613 300V290.62H71.0493V300H72.5613Z" fill="#666666"/>
<path d="M129.796 300V294.456L129.712 292.888H129.838L130.398 294.456L132.512 299.44H134.332L136.432 294.456L137.02 292.888H137.118L137.062 294.456V300H138.56V290.62H136.418L134.318 295.772L133.506 298.012H133.394L132.568 295.772L130.426 290.62H128.284V300H129.796ZM142.266 300.14C143.582 300.14 144.38 299.566 144.786 298.908H144.856V300H146.256V295.772C146.256 294.078 145.276 292.902 143.33 292.902C141.468 292.902 140.25 294.022 140.25 295.576V295.716H141.706V295.506C141.706 294.582 142.14 294.232 143.246 294.232C144.338 294.232 144.814 294.54 144.814 295.576V295.954L142.378 296.318C140.894 296.528 140.054 297.13 140.054 298.278C140.054 299.496 141.02 300.14 142.266 300.14ZM141.524 298.166C141.524 297.648 141.804 297.466 142.602 297.354L144.814 297.018V297.144C144.814 298.544 143.736 298.936 142.756 298.936C141.874 298.936 141.524 298.712 141.524 298.166ZM148.777 302.38C149.869 302.38 150.541 302.058 151.059 300.826L154.349 293.042H152.683L151.409 296.416L150.835 297.928H150.723L150.093 296.416L148.693 293.042H147.027L149.981 299.818L149.715 300.406C149.491 300.924 149.281 301.022 148.679 301.022H147.727V302.254C147.965 302.324 148.399 302.38 148.777 302.38Z" fill="#666666"/>
<path d="M218.016 298.73C218.016 299.063 217.953 299.375 217.825 299.667C217.702 299.959 217.531 300.214 217.312 300.433C217.094 300.651 216.838 300.825 216.547 300.952C216.255 301.075 215.943 301.137 215.61 301.137H215.33C214.997 301.137 214.683 301.075 214.386 300.952C214.095 300.825 213.84 300.651 213.621 300.433C213.402 300.214 213.229 299.959 213.101 299.667C212.978 299.375 212.917 299.063 212.917 298.73V298.341L213.799 298.197V298.73C213.799 298.949 213.84 299.154 213.922 299.346C214.004 299.533 214.115 299.699 214.257 299.845C214.402 299.986 214.569 300.098 214.756 300.18C214.947 300.262 215.152 300.303 215.371 300.303H215.569C215.783 300.303 215.986 300.262 216.177 300.18C216.369 300.098 216.535 299.986 216.677 299.845C216.818 299.699 216.929 299.533 217.011 299.346C217.094 299.154 217.135 298.949 217.135 298.73V291.197H218.016V298.73ZM224.374 301L223.909 300.289C223.717 300.549 223.478 300.756 223.191 300.911C222.904 301.062 222.589 301.137 222.248 301.137H222.036C221.753 301.137 221.486 301.084 221.236 300.979C220.985 300.87 220.766 300.722 220.58 300.535C220.393 300.348 220.245 300.13 220.135 299.879C220.03 299.628 219.978 299.362 219.978 299.079V294H220.819V299.127C220.819 299.296 220.851 299.455 220.915 299.605C220.978 299.751 221.065 299.879 221.174 299.988C221.284 300.098 221.411 300.184 221.557 300.248C221.707 300.312 221.867 300.344 222.036 300.344H222.596C222.765 300.344 222.922 300.312 223.068 300.248C223.218 300.184 223.348 300.098 223.457 299.988C223.567 299.879 223.653 299.751 223.717 299.605C223.781 299.455 223.813 299.296 223.813 299.127V294H224.654V301H224.374ZM230.45 301V295.873C230.45 295.704 230.418 295.547 230.355 295.401C230.291 295.251 230.204 295.121 230.095 295.012C229.986 294.902 229.856 294.816 229.705 294.752C229.559 294.688 229.402 294.656 229.234 294.656H228.673C228.504 294.656 228.345 294.688 228.195 294.752C228.049 294.816 227.921 294.902 227.812 295.012C227.702 295.121 227.616 295.251 227.552 295.401C227.488 295.547 227.456 295.704 227.456 295.873V301H226.615V294H226.896L227.354 294.711C227.545 294.451 227.784 294.246 228.071 294.096C228.363 293.941 228.68 293.863 229.022 293.863H229.234C229.516 293.863 229.783 293.918 230.033 294.027C230.284 294.132 230.503 294.278 230.69 294.465C230.876 294.652 231.022 294.87 231.127 295.121C231.237 295.372 231.291 295.638 231.291 295.921V301H230.45ZM237.929 299.079C237.929 299.362 237.874 299.628 237.765 299.879C237.66 300.13 237.514 300.348 237.327 300.535C237.14 300.722 236.921 300.87 236.671 300.979C236.42 301.084 236.154 301.137 235.871 301.137H235.31C235.028 301.137 234.761 301.084 234.511 300.979C234.26 300.87 234.041 300.722 233.854 300.535C233.668 300.348 233.519 300.13 233.41 299.879C233.305 299.628 233.253 299.362 233.253 299.079V295.921C233.253 295.638 233.305 295.372 233.41 295.121C233.519 294.87 233.668 294.652 233.854 294.465C234.041 294.278 234.26 294.132 234.511 294.027C234.761 293.918 235.028 293.863 235.31 293.863H235.871C236.154 293.863 236.42 293.918 236.671 294.027C236.921 294.132 237.14 294.278 237.327 294.465C237.514 294.652 237.66 294.87 237.765 295.121C237.874 295.372 237.929 295.638 237.929 295.921V297.568H234.094V299.127C234.094 299.296 234.126 299.455 234.189 299.605C234.253 299.751 234.34 299.879 234.449 299.988C234.559 300.098 234.686 300.184 234.832 300.248C234.982 300.312 235.142 300.344 235.31 300.344H235.871C236.04 300.344 236.197 300.312 236.343 300.248C236.493 300.184 236.623 300.098 236.732 299.988C236.842 299.879 236.928 299.751 236.992 299.605C237.056 299.455 237.088 299.296 237.088 299.127V298.662L237.929 298.799V299.079ZM237.088 295.873C237.088 295.704 237.056 295.547 236.992 295.401C236.928 295.251 236.842 295.121 236.732 295.012C236.623 294.902 236.493 294.816 236.343 294.752C236.197 294.688 236.04 294.656 235.871 294.656H235.31C235.142 294.656 234.982 294.688 234.832 294.752C234.686 294.816 234.559 294.902 234.449 295.012C234.34 295.121 234.253 295.251 234.189 295.401C234.126 295.547 234.094 295.704 234.094 295.873V296.912H237.088V295.873Z" fill="#ABD02B"/>
<path d="M297.21 300.14C299.646 300.14 300.654 298.698 300.654 296.584V290.62H299.044V296.696C299.044 298.096 298.764 298.684 297.168 298.684C295.558 298.684 295.278 298.096 295.278 296.696V296.192H293.682V296.584C293.682 298.698 294.662 300.14 297.21 300.14ZM305.014 300.14C306.372 300.14 307.114 299.412 307.45 298.614H307.506V300H308.906V293.042H307.394V296.962C307.394 298.334 306.736 298.838 305.574 298.838C304.37 298.838 303.894 298.32 303.894 297.074V293.042H302.382V297.34C302.382 298.922 303.194 300.14 305.014 300.14ZM312.187 300V290.62H310.675V300H312.187ZM315.016 302.38C316.108 302.38 316.78 302.058 317.298 300.826L320.588 293.042H318.922L317.648 296.416L317.074 297.928H316.962L316.332 296.416L314.932 293.042H313.266L316.22 299.818L315.954 300.406C315.73 300.924 315.52 301.022 314.918 301.022H313.966V302.254C314.204 302.324 314.638 302.38 315.016 302.38Z" fill="#666666"/>
<path d="M14.2523 222.381V221.541H16.5901V213.419L14.2523 214.404V213.563L16.5901 212.579H17.472V221.541H19.8099V222.381H14.2523ZM26.8711 220.112C26.8711 220.444 26.8073 220.757 26.6797 221.048C26.5567 221.34 26.3858 221.595 26.167 221.814C25.9483 222.033 25.6931 222.206 25.4014 222.333C25.1097 222.457 24.7976 222.518 24.4649 222.518H24.0479C23.7152 222.518 23.4007 222.457 23.1045 222.333C22.8129 222.206 22.5576 222.033 22.3389 221.814C22.1201 221.595 21.947 221.34 21.8194 221.048C21.6963 220.757 21.6348 220.444 21.6348 220.112V214.848C21.6348 214.515 21.6963 214.203 21.8194 213.912C21.947 213.62 22.1201 213.365 22.3389 213.146C22.5576 212.927 22.8129 212.756 23.1045 212.633C23.4007 212.506 23.7152 212.442 24.0479 212.442H24.4649C24.7976 212.442 25.1097 212.506 25.4014 212.633C25.6931 212.756 25.9483 212.927 26.167 213.146C26.3858 213.365 26.5567 213.62 26.6797 213.912C26.8073 214.203 26.8711 214.515 26.8711 214.848V220.112ZM25.9893 214.848C25.9893 214.629 25.9483 214.427 25.8662 214.24C25.7842 214.048 25.6726 213.882 25.5313 213.741C25.39 213.599 25.2237 213.488 25.0323 213.406C24.8454 213.324 24.6426 213.283 24.4239 213.283H24.0889C23.8701 213.283 23.6651 213.324 23.4737 213.406C23.2868 213.488 23.1205 213.599 22.9746 213.741C22.8334 213.882 22.7217 214.048 22.6397 214.24C22.5576 214.427 22.5166 214.629 22.5166 214.848V220.112C22.5166 220.331 22.5576 220.536 22.6397 220.727C22.7217 220.914 22.8334 221.08 22.9746 221.226C23.1205 221.367 23.2868 221.479 23.4737 221.561C23.6651 221.643 23.8701 221.684 24.0889 221.684H24.4239C24.6426 221.684 24.8454 221.643 25.0323 221.561C25.2237 221.479 25.39 221.367 25.5313 221.226C25.6726 221.08 25.7842 220.914 25.8662 220.727C25.9483 220.536 25.9893 220.331 25.9893 220.112V214.848ZM33.1257 222.381L30.2683 218.881L33.1257 215.381H34.2195L31.2937 218.881L34.2195 222.381H33.1257ZM29.2634 222.381V212.579H30.1042V222.381H29.2634Z" fill="#CCCDD2"/>
<line x1="42.4998" y1="216.5" x2="327.5" y2="216.5" stroke="#CCCCCC" stroke-dasharray="3 3"/>
<path d="M16.679 154.092C16.4603 154.092 16.2552 154.133 16.0638 154.215C15.8769 154.297 15.7129 154.409 15.5716 154.55C15.4303 154.691 15.3187 154.858 15.2366 155.049C15.1546 155.236 15.1136 155.439 15.1136 155.657V156.054L14.2317 155.91V155.657C14.2317 155.325 14.2933 155.013 14.4163 154.721C14.5439 154.429 14.7171 154.174 14.9359 153.955C15.1546 153.737 15.4098 153.566 15.7015 153.443C15.9931 153.315 16.3053 153.251 16.638 153.251H17.055C17.3877 153.251 17.6998 153.31 17.9915 153.429C18.2877 153.547 18.5452 153.718 18.764 153.942C18.9827 154.165 19.1536 154.434 19.2767 154.748C19.4043 155.058 19.4681 155.409 19.4681 155.801C19.4681 156.188 19.4088 156.578 19.2903 156.97C19.1764 157.362 19.0237 157.747 18.8323 158.125C18.6455 158.503 18.429 158.87 18.1829 159.226C17.9414 159.581 17.693 159.916 17.4378 160.231C16.8408 160.964 16.164 161.671 15.4075 162.35H19.5364V163.191H14.0198V162.493C14.872 161.792 15.6331 161.065 16.303 160.313C16.5901 159.989 16.8704 159.645 17.1439 159.281C17.4173 158.916 17.6611 158.542 17.8753 158.159C18.0895 157.772 18.2604 157.38 18.388 156.984C18.5202 156.583 18.5862 156.188 18.5862 155.801C18.5862 155.514 18.5429 155.263 18.4564 155.049C18.3698 154.835 18.2536 154.657 18.1077 154.516C17.9619 154.375 17.7933 154.27 17.6019 154.201C17.415 154.128 17.2191 154.092 17.014 154.092H16.679ZM26.8711 160.921C26.8711 161.254 26.8073 161.566 26.6797 161.858C26.5567 162.149 26.3858 162.405 26.167 162.623C25.9483 162.842 25.6931 163.015 25.4014 163.143C25.1097 163.266 24.7976 163.327 24.4649 163.327H24.0479C23.7152 163.327 23.4007 163.266 23.1045 163.143C22.8129 163.015 22.5576 162.842 22.3389 162.623C22.1201 162.405 21.947 162.149 21.8194 161.858C21.6963 161.566 21.6348 161.254 21.6348 160.921V155.657C21.6348 155.325 21.6963 155.013 21.8194 154.721C21.947 154.429 22.1201 154.174 22.3389 153.955C22.5576 153.737 22.8129 153.566 23.1045 153.443C23.4007 153.315 23.7152 153.251 24.0479 153.251H24.4649C24.7976 153.251 25.1097 153.315 25.4014 153.443C25.6931 153.566 25.9483 153.737 26.167 153.955C26.3858 154.174 26.5567 154.429 26.6797 154.721C26.8073 155.013 26.8711 155.325 26.8711 155.657V160.921ZM25.9893 155.657C25.9893 155.439 25.9483 155.236 25.8662 155.049C25.7842 154.858 25.6726 154.691 25.5313 154.55C25.39 154.409 25.2237 154.297 25.0323 154.215C24.8454 154.133 24.6426 154.092 24.4239 154.092H24.0889C23.8701 154.092 23.6651 154.133 23.4737 154.215C23.2868 154.297 23.1205 154.409 22.9746 154.55C22.8334 154.691 22.7217 154.858 22.6397 155.049C22.5576 155.236 22.5166 155.439 22.5166 155.657V160.921C22.5166 161.14 22.5576 161.345 22.6397 161.536C22.7217 161.723 22.8334 161.89 22.9746 162.035C23.1205 162.177 23.2868 162.288 23.4737 162.37C23.6651 162.452 23.8701 162.493 24.0889 162.493H24.4239C24.6426 162.493 24.8454 162.452 25.0323 162.37C25.2237 162.288 25.39 162.177 25.5313 162.035C25.6726 161.89 25.7842 161.723 25.8662 161.536C25.9483 161.345 25.9893 161.14 25.9893 160.921V155.657ZM33.1257 163.191L30.2683 159.691L33.1257 156.191H34.2195L31.2937 159.691L34.2195 163.191H33.1257ZM29.2634 163.191V153.388H30.1042V163.191H29.2634Z" fill="#CCCDD2"/>
<line x1="42.4998" y1="157.5" x2="327.5" y2="157.5" stroke="#CCCCCC" stroke-dasharray="3 3"/>
<path d="M19.5228 101.73C19.5228 102.063 19.459 102.375 19.3314 102.667C19.2083 102.959 19.0374 103.214 18.8187 103.433C18.5999 103.651 18.3447 103.825 18.053 103.952C17.7614 104.075 17.4492 104.137 17.1165 104.137H16.6995C16.3668 104.137 16.0524 104.075 15.7562 103.952C15.4645 103.825 15.2093 103.651 14.9905 103.433C14.7718 103.214 14.5986 102.959 14.471 102.667C14.348 102.375 14.2864 102.063 14.2864 101.73V101.58H15.1683V101.73C15.1683 101.949 15.2093 102.154 15.2913 102.346C15.3734 102.533 15.485 102.699 15.6263 102.845C15.7721 102.986 15.9385 103.098 16.1253 103.18C16.3167 103.262 16.5218 103.303 16.7405 103.303H17.0755C17.2942 103.303 17.497 103.262 17.6839 103.18C17.8753 103.098 18.0416 102.986 18.1829 102.845C18.3242 102.699 18.4359 102.533 18.5179 102.346C18.5999 102.154 18.6409 101.949 18.6409 101.73V99.8301C18.6409 99.6113 18.5999 99.4085 18.5179 99.2217C18.4359 99.0303 18.3242 98.8639 18.1829 98.7227C18.0416 98.5768 17.8753 98.4629 17.6839 98.3809C17.497 98.2988 17.2942 98.2578 17.0755 98.2578H16.7405C16.5218 98.2578 16.3167 98.2988 16.1253 98.3809C15.9385 98.4629 15.7721 98.5768 15.6263 98.7227C15.485 98.8639 15.3734 99.0303 15.2913 99.2217C15.2093 99.4085 15.1683 99.6113 15.1683 99.8301H14.2864L14.847 94.1973H19.0374V95.0381H15.6741L15.3528 98.0527C15.5625 97.8522 15.8063 97.6973 16.0843 97.5879C16.3623 97.474 16.6608 97.417 16.9798 97.417H17.1165C17.4492 97.417 17.7614 97.4808 18.053 97.6084C18.3447 97.7314 18.5999 97.9023 18.8187 98.1211C19.0374 98.3398 19.2083 98.5973 19.3314 98.8936C19.459 99.1852 19.5228 99.4974 19.5228 99.8301V101.73ZM26.8711 101.73C26.8711 102.063 26.8073 102.375 26.6797 102.667C26.5567 102.959 26.3858 103.214 26.167 103.433C25.9483 103.651 25.6931 103.825 25.4014 103.952C25.1097 104.075 24.7976 104.137 24.4649 104.137H24.0479C23.7152 104.137 23.4007 104.075 23.1045 103.952C22.8129 103.825 22.5576 103.651 22.3389 103.433C22.1201 103.214 21.947 102.959 21.8194 102.667C21.6963 102.375 21.6348 102.063 21.6348 101.73V96.4668C21.6348 96.1341 21.6963 95.8219 21.8194 95.5303C21.947 95.2386 22.1201 94.9834 22.3389 94.7646C22.5576 94.5459 22.8129 94.375 23.1045 94.252C23.4007 94.1243 23.7152 94.0605 24.0479 94.0605H24.4649C24.7976 94.0605 25.1097 94.1243 25.4014 94.252C25.6931 94.375 25.9483 94.5459 26.167 94.7646C26.3858 94.9834 26.5567 95.2386 26.6797 95.5303C26.8073 95.8219 26.8711 96.1341 26.8711 96.4668V101.73ZM25.9893 96.4668C25.9893 96.248 25.9483 96.0452 25.8662 95.8584C25.7842 95.667 25.6726 95.5007 25.5313 95.3594C25.39 95.2181 25.2237 95.1064 25.0323 95.0244C24.8454 94.9424 24.6426 94.9014 24.4239 94.9014H24.0889C23.8701 94.9014 23.6651 94.9424 23.4737 95.0244C23.2868 95.1064 23.1205 95.2181 22.9746 95.3594C22.8334 95.5007 22.7217 95.667 22.6397 95.8584C22.5576 96.0452 22.5166 96.248 22.5166 96.4668V101.73C22.5166 101.949 22.5576 102.154 22.6397 102.346C22.7217 102.533 22.8334 102.699 22.9746 102.845C23.1205 102.986 23.2868 103.098 23.4737 103.18C23.6651 103.262 23.8701 103.303 24.0889 103.303H24.4239C24.6426 103.303 24.8454 103.262 25.0323 103.18C25.2237 103.098 25.39 102.986 25.5313 102.845C25.6726 102.699 25.7842 102.533 25.8662 102.346C25.9483 102.154 25.9893 101.949 25.9893 101.73V96.4668ZM33.1257 104L30.2683 100.5L33.1257 97H34.2195L31.2937 100.5L34.2195 104H33.1257ZM29.2634 104V94.1973H30.1042V104H29.2634Z" fill="#CCCDD2"/>
<line x1="42.4998" y1="98.5" x2="327.5" y2="98.5" stroke="#CCCCCC" stroke-dasharray="3 3"/>
<g filter="url(#filter0_d_0_690)">
<path d="M42.4998 273.5C42.4998 273.5 63.7522 267.826 71.9998 265.5C91.4998 260 75.8406 235.215 87.4998 231.887C100.676 228.127 108.057 243.348 121.5 240.617C142.437 236.362 132.274 204.513 152 196.486C165.864 190.843 176.302 201.286 190.5 196.486C212.62 189.007 202.665 156.94 225.5 151.87C252.273 145.925 246.5 182.11 274.5 175.13C298.577 169.129 281.5 137.63 305.5 145C322.678 150.275 323.5 128.63 323.5 128.63" stroke="url(#paint0_linear_0_690)" stroke-width="2.5" stroke-linecap="round"/>
</g>
<path d="M202.5 122.5C202.5 108.969 213.469 98 227 98C240.531 98 251.5 108.969 251.5 122.5V274H202.5V122.5Z" fill="url(#paint1_linear_0_690)"/>
<g filter="url(#filter1_d_0_690)">
<circle cx="225.5" cy="153" r="9" fill="#131313"/>
<circle cx="225.5" cy="153" r="6.5" stroke="white" stroke-width="5"/>
</g>
<path fill-rule="evenodd" clip-rule="evenodd" d="M195.5 109C192.186 109 189.5 111.686 189.5 115V131.14C189.5 134.454 192.186 137.14 195.5 137.14H222.169L225.381 141.329L228.593 137.14H255.602C258.916 137.14 261.602 134.454 261.602 131.14V115C261.602 111.686 258.916 109 255.602 109H195.5Z" fill="#00AE9A"/>
<path d="M204.566 125.055C204.566 125.34 204.508 125.607 204.39 125.857C204.277 126.107 204.123 126.326 203.927 126.514C203.736 126.701 203.511 126.85 203.254 126.959C203 127.064 202.73 127.117 202.445 127.117H201.842C201.556 127.117 201.285 127.064 201.027 126.959C200.773 126.85 200.549 126.701 200.353 126.514C200.162 126.326 200.008 126.107 199.89 125.857C199.777 125.607 199.72 125.34 199.72 125.055V124.721L200.476 124.598V125.055C200.476 125.242 200.513 125.418 200.588 125.582C200.666 125.742 200.769 125.885 200.898 126.01C201.027 126.131 201.176 126.227 201.344 126.297C201.515 126.367 201.695 126.402 201.883 126.402H202.41C202.597 126.402 202.775 126.367 202.943 126.297C203.111 126.227 203.26 126.131 203.388 126.01C203.517 125.885 203.619 125.742 203.693 125.582C203.771 125.418 203.81 125.242 203.81 125.055V124.803C203.81 124.514 203.754 124.273 203.64 124.082C203.527 123.891 203.377 123.729 203.189 123.596C203.002 123.459 202.789 123.344 202.551 123.25C202.316 123.156 202.074 123.062 201.824 122.969C201.574 122.875 201.33 122.771 201.092 122.658C200.857 122.545 200.646 122.404 200.459 122.236C200.271 122.064 200.121 121.855 200.008 121.609C199.894 121.363 199.838 121.061 199.838 120.701V120.543C199.838 120.258 199.89 119.99 199.996 119.74C200.105 119.49 200.254 119.271 200.441 119.084C200.629 118.896 200.847 118.75 201.097 118.645C201.351 118.535 201.621 118.48 201.906 118.48H202.445C202.73 118.48 202.998 118.535 203.248 118.645C203.498 118.75 203.717 118.896 203.904 119.084C204.092 119.271 204.238 119.49 204.344 119.74C204.453 119.99 204.508 120.258 204.508 120.543V120.76L203.752 120.883V120.543C203.752 120.355 203.717 120.182 203.646 120.021C203.576 119.857 203.48 119.715 203.359 119.594C203.238 119.473 203.095 119.377 202.931 119.307C202.771 119.236 202.597 119.201 202.41 119.201H201.941C201.754 119.201 201.578 119.236 201.414 119.307C201.254 119.377 201.111 119.473 200.986 119.594C200.865 119.715 200.769 119.857 200.699 120.021C200.629 120.182 200.594 120.355 200.594 120.543V120.701C200.594 120.971 200.65 121.197 200.763 121.381C200.877 121.564 201.027 121.723 201.215 121.855C201.402 121.984 201.613 122.098 201.847 122.195C202.086 122.289 202.33 122.387 202.58 122.488C202.83 122.586 203.072 122.695 203.306 122.816C203.545 122.934 203.758 123.08 203.945 123.256C204.133 123.428 204.283 123.639 204.396 123.889C204.51 124.139 204.566 124.443 204.566 124.803V125.055ZM209.587 125.043H206.927L206.376 127H205.591L208.052 118.598H208.451L210.923 127H210.144L209.587 125.043ZM207.132 124.322H209.388L208.281 120.449L208.257 120.139L208.234 120.449L207.132 124.322ZM216.191 127L213.911 123.414H212.874V127H212.118V118.598H214.784C215.07 118.598 215.337 118.652 215.587 118.762C215.837 118.867 216.056 119.014 216.243 119.201C216.431 119.389 216.577 119.609 216.683 119.863C216.792 120.113 216.847 120.381 216.847 120.666V121.346C216.847 121.631 216.792 121.9 216.683 122.154C216.577 122.404 216.431 122.623 216.243 122.811C216.056 122.998 215.837 123.146 215.587 123.256C215.337 123.361 215.07 123.414 214.784 123.414L217.064 127H216.191ZM216.091 120.666C216.091 120.479 216.056 120.305 215.986 120.145C215.915 119.98 215.82 119.838 215.699 119.717C215.577 119.592 215.435 119.494 215.271 119.424C215.111 119.354 214.937 119.318 214.749 119.318H212.874V122.693H214.749C214.937 122.693 215.111 122.658 215.271 122.588C215.435 122.518 215.577 122.422 215.699 122.301C215.82 122.176 215.915 122.033 215.986 121.873C216.056 121.709 216.091 121.533 216.091 121.346V120.666ZM223.555 119.201C223.368 119.201 223.192 119.236 223.028 119.307C222.868 119.377 222.727 119.473 222.606 119.594C222.485 119.715 222.389 119.857 222.319 120.021C222.249 120.182 222.214 120.355 222.214 120.543V120.883L221.458 120.76V120.543C221.458 120.258 221.511 119.99 221.616 119.74C221.725 119.49 221.874 119.271 222.061 119.084C222.249 118.896 222.468 118.75 222.718 118.645C222.968 118.535 223.235 118.48 223.52 118.48H223.878C224.163 118.48 224.43 118.531 224.68 118.633C224.934 118.734 225.155 118.881 225.343 119.072C225.53 119.264 225.677 119.494 225.782 119.764C225.891 120.029 225.946 120.33 225.946 120.666C225.946 120.998 225.895 121.332 225.794 121.668C225.696 122.004 225.565 122.334 225.401 122.658C225.241 122.982 225.055 123.297 224.845 123.602C224.637 123.906 224.425 124.193 224.206 124.463C223.694 125.092 223.114 125.697 222.466 126.279H226.005V127H221.276V126.402C222.007 125.801 222.659 125.178 223.233 124.533C223.479 124.256 223.72 123.961 223.954 123.648C224.188 123.336 224.397 123.016 224.581 122.688C224.764 122.355 224.911 122.02 225.02 121.68C225.134 121.336 225.19 120.998 225.19 120.666C225.19 120.42 225.153 120.205 225.079 120.021C225.005 119.838 224.905 119.686 224.78 119.564C224.655 119.443 224.511 119.354 224.346 119.295C224.186 119.232 224.018 119.201 223.843 119.201H223.555ZM232.292 125.055C232.292 125.34 232.237 125.607 232.127 125.857C232.022 126.107 231.876 126.326 231.688 126.514C231.501 126.701 231.282 126.85 231.032 126.959C230.782 127.064 230.514 127.117 230.229 127.117H229.872C229.586 127.117 229.317 127.064 229.063 126.959C228.813 126.85 228.594 126.701 228.407 126.514C228.219 126.326 228.071 126.107 227.961 125.857C227.856 125.607 227.803 125.34 227.803 125.055V120.543C227.803 120.258 227.856 119.99 227.961 119.74C228.071 119.49 228.219 119.271 228.407 119.084C228.594 118.896 228.813 118.75 229.063 118.645C229.317 118.535 229.586 118.48 229.872 118.48H230.229C230.514 118.48 230.782 118.535 231.032 118.645C231.282 118.75 231.501 118.896 231.688 119.084C231.876 119.271 232.022 119.49 232.127 119.74C232.237 119.99 232.292 120.258 232.292 120.543V125.055ZM231.536 120.543C231.536 120.355 231.501 120.182 231.43 120.021C231.36 119.857 231.264 119.715 231.143 119.594C231.022 119.473 230.879 119.377 230.715 119.307C230.555 119.236 230.381 119.201 230.194 119.201H229.907C229.719 119.201 229.544 119.236 229.379 119.307C229.219 119.377 229.077 119.473 228.952 119.594C228.831 119.715 228.735 119.857 228.665 120.021C228.594 120.182 228.559 120.355 228.559 120.543V125.055C228.559 125.242 228.594 125.418 228.665 125.582C228.735 125.742 228.831 125.885 228.952 126.01C229.077 126.131 229.219 126.227 229.379 126.297C229.544 126.367 229.719 126.402 229.907 126.402H230.194C230.381 126.402 230.555 126.367 230.715 126.297C230.879 126.227 231.022 126.131 231.143 126.01C231.264 125.885 231.36 125.742 231.43 125.582C231.501 125.418 231.536 125.242 231.536 125.055V120.543ZM234.184 128.682H233.879V126.098H234.782L234.184 128.682ZM240.846 125.055C240.846 125.34 240.791 125.607 240.682 125.857C240.576 126.107 240.43 126.326 240.242 126.514C240.055 126.701 239.836 126.85 239.586 126.959C239.336 127.064 239.068 127.117 238.783 127.117H238.426C238.141 127.117 237.871 127.064 237.617 126.959C237.367 126.85 237.149 126.701 236.961 126.514C236.774 126.326 236.625 126.107 236.516 125.857C236.41 125.607 236.357 125.34 236.357 125.055V120.543C236.357 120.258 236.41 119.99 236.516 119.74C236.625 119.49 236.774 119.271 236.961 119.084C237.149 118.896 237.367 118.75 237.617 118.645C237.871 118.535 238.141 118.48 238.426 118.48H238.783C239.068 118.48 239.336 118.535 239.586 118.645C239.836 118.75 240.055 118.896 240.242 119.084C240.43 119.271 240.576 119.49 240.682 119.74C240.791 119.99 240.846 120.258 240.846 120.543V125.055ZM240.09 120.543C240.09 120.355 240.055 120.182 239.984 120.021C239.914 119.857 239.818 119.715 239.697 119.594C239.576 119.473 239.434 119.377 239.27 119.307C239.109 119.236 238.936 119.201 238.748 119.201H238.461C238.274 119.201 238.098 119.236 237.934 119.307C237.774 119.377 237.631 119.473 237.506 119.594C237.385 119.715 237.289 119.857 237.219 120.021C237.149 120.182 237.113 120.355 237.113 120.543V125.055C237.113 125.242 237.149 125.418 237.219 125.582C237.289 125.742 237.385 125.885 237.506 126.01C237.631 126.131 237.774 126.227 237.934 126.297C238.098 126.367 238.274 126.402 238.461 126.402H238.748C238.936 126.402 239.109 126.367 239.27 126.297C239.434 126.227 239.576 126.131 239.697 126.01C239.818 125.885 239.914 125.742 239.984 125.582C240.055 125.418 240.09 125.242 240.09 125.055V120.543ZM247.262 125.055C247.262 125.34 247.207 125.607 247.097 125.857C246.992 126.107 246.846 126.326 246.658 126.514C246.471 126.701 246.252 126.85 246.002 126.959C245.752 127.064 245.484 127.117 245.199 127.117H244.842C244.556 127.117 244.287 127.064 244.033 126.959C243.783 126.85 243.564 126.701 243.377 126.514C243.189 126.326 243.041 126.107 242.931 125.857C242.826 125.607 242.773 125.34 242.773 125.055V120.543C242.773 120.258 242.826 119.99 242.931 119.74C243.041 119.49 243.189 119.271 243.377 119.084C243.564 118.896 243.783 118.75 244.033 118.645C244.287 118.535 244.556 118.48 244.842 118.48H245.199C245.484 118.48 245.752 118.535 246.002 118.645C246.252 118.75 246.471 118.896 246.658 119.084C246.846 119.271 246.992 119.49 247.097 119.74C247.207 119.99 247.262 120.258 247.262 120.543V125.055ZM246.506 120.543C246.506 120.355 246.471 120.182 246.4 120.021C246.33 119.857 246.234 119.715 246.113 119.594C245.992 119.473 245.849 119.377 245.685 119.307C245.525 119.236 245.351 119.201 245.164 119.201H244.877C244.689 119.201 244.514 119.236 244.349 119.307C244.189 119.377 244.047 119.473 243.922 119.594C243.801 119.715 243.705 119.857 243.635 120.021C243.564 120.182 243.529 120.355 243.529 120.543V125.055C243.529 125.242 243.564 125.418 243.635 125.582C243.705 125.742 243.801 125.885 243.922 126.01C244.047 126.131 244.189 126.227 244.349 126.297C244.514 126.367 244.689 126.402 244.877 126.402H245.164C245.351 126.402 245.525 126.367 245.685 126.297C245.849 126.227 245.992 126.131 246.113 126.01C246.234 125.885 246.33 125.742 246.4 125.582C246.471 125.418 246.506 125.242 246.506 125.055V120.543ZM253.677 125.055C253.677 125.34 253.623 125.607 253.513 125.857C253.408 126.107 253.261 126.326 253.074 126.514C252.886 126.701 252.668 126.85 252.418 126.959C252.168 127.064 251.9 127.117 251.615 127.117H251.257C250.972 127.117 250.703 127.064 250.449 126.959C250.199 126.85 249.98 126.701 249.793 126.514C249.605 126.326 249.457 126.107 249.347 125.857C249.242 125.607 249.189 125.34 249.189 125.055V120.543C249.189 120.258 249.242 119.99 249.347 119.74C249.457 119.49 249.605 119.271 249.793 119.084C249.98 118.896 250.199 118.75 250.449 118.645C250.703 118.535 250.972 118.48 251.257 118.48H251.615C251.9 118.48 252.168 118.535 252.418 118.645C252.668 118.75 252.886 118.896 253.074 119.084C253.261 119.271 253.408 119.49 253.513 119.74C253.623 119.99 253.677 120.258 253.677 120.543V125.055ZM252.921 120.543C252.921 120.355 252.886 120.182 252.816 120.021C252.746 119.857 252.65 119.715 252.529 119.594C252.408 119.473 252.265 119.377 252.101 119.307C251.941 119.236 251.767 119.201 251.58 119.201H251.293C251.105 119.201 250.929 119.236 250.765 119.307C250.605 119.377 250.462 119.473 250.337 119.594C250.216 119.715 250.121 119.857 250.05 120.021C249.98 120.182 249.945 120.355 249.945 120.543V125.055C249.945 125.242 249.98 125.418 250.05 125.582C250.121 125.742 250.216 125.885 250.337 126.01C250.462 126.131 250.605 126.227 250.765 126.297C250.929 126.367 251.105 126.402 251.293 126.402H251.58C251.767 126.402 251.941 126.367 252.101 126.297C252.265 126.227 252.408 126.131 252.529 126.01C252.65 125.885 252.746 125.742 252.816 125.582C252.886 125.418 252.921 125.242 252.921 125.055V120.543Z" fill="white"/>
<defs>
<filter id="filter0_d_0_690" x="36.2494" y="127.38" width="293.5" height="157.37" filterUnits="userSpaceOnUse" color-interpolation-filters="sRGB">
<feFlood flood-opacity="0" result="BackgroundImageFix"/>
<feColorMatrix in="SourceAlpha" type="matrix" values="0 0 0 0 0 0 0 0 0 0 0 0 0 0 0 0 0 0 127 0" result="hardAlpha"/>
<feOffset dy="5"/>
<feGaussianBlur stdDeviation="2.5"/>
<feComposite in2="hardAlpha" operator="out"/>
<feColorMatrix type="matrix" values="0 0 0 0 0.884236 0 0 0 0 0.891667 0 0 0 0 0.888507 0 0 0 1 0"/>
<feBlend mode="normal" in2="BackgroundImageFix" result="effect1_dropShadow_0_690"/>
<feBlend mode="normal" in="SourceGraphic" in2="effect1_dropShadow_0_690" result="shape"/>
</filter>
<filter id="filter1_d_0_690" x="203.5" y="134" width="44" height="44" filterUnits="userSpaceOnUse" color-interpolation-filters="sRGB">
<feFlood flood-opacity="0" result="BackgroundImageFix"/>
<feColorMatrix in="SourceAlpha" type="matrix" values="0 0 0 0 0 0 0 0 0 0 0 0 0 0 0 0 0 0 127 0" result="hardAlpha"/>
<feOffset dy="3"/>
<feGaussianBlur stdDeviation="6.5"/>
<feComposite in2="hardAlpha" operator="out"/>
<feColorMatrix type="matrix" values="0 0 0 0 0.290196 0 0 0 0 0.333333 0 0 0 0 0.407843 0 0 0 0.15 0"/>
<feBlend mode="normal" in2="BackgroundImageFix" result="effect1_dropShadow_0_690"/>
<feBlend mode="normal" in="SourceGraphic" in2="effect1_dropShadow_0_690" result="shape"/>
</filter>
<linearGradient id="paint0_linear_0_690" x1="313.5" y1="129.077" x2="40.5245" y2="259.091" gradientUnits="userSpaceOnUse">
<stop offset="0.9999" stop-color="#C6D8D1"/>
<stop offset="1" stop-color="#C6D8D1"/>
</linearGradient>
<linearGradient id="paint1_linear_0_690" x1="227" y1="98" x2="227" y2="274" gradientUnits="userSpaceOnUse">
<stop stop-color="white" stop-opacity="0.03"/>
<stop offset="1" stop-color="#A7FED9" stop-opacity="0.4"/>
</linearGradient>
</defs>
</svg>
